HIERARCHY
ROOT Hips
{
    OFFSET 0.000000 0.000000 0.000000
    CHANNELS 6 Xposition Yposition Zposition Zrotation Xrotation Yrotation
    JOINT Spine
    {
        OFFSET -0.000000 7.236184 0.000000
        CHANNELS 3 Zrotation Xrotation Yrotation
        JOINT Spine1
        {
            OFFSET -0.000000 20.420147 0.000000
            CHANNELS 3 Zrotation Xrotation Yrotation
            JOINT Neck
            {
                OFFSET -0.000000 20.336288 1.848754
                CHANNELS 3 Zrotation Xrotation Yrotation
                JOINT Head
                {
                    OFFSET -0.000000 12.354461 -1.764923
                    CHANNELS 3 Zrotation Xrotation Yrotation
                    End Site
                    {
                        OFFSET -0.000000 22.061537 0.000000
                    }
                }
            }
            JOINT LeftShoulder
            {
                OFFSET 3.573296 18.396038 -0.314103
                CHANNELS 3 Zrotation Xrotation Yrotation
                JOINT LeftArm
                {
                    OFFSET 10.880760 0.000000 0.000000
                    CHANNELS 3 Zrotation Xrotation Yrotation
                    JOINT LeftForeArm
                    {
                        OFFSET 27.185530 0.000000 0.000000
                        CHANNELS 3 Zrotation Xrotation Yrotation
                        JOINT LeftHand
                        {
                            OFFSET 27.825975 0.000000 0.000000
                            CHANNELS 3 Zrotation Xrotation Yrotation
                            End Site
                            {
                                OFFSET 13.236923 0.000000 0.000000
                            }
                        }
                    }
                }
            }
            JOINT RightShoulder
            {
                OFFSET -3.474926 18.396038 -0.314103
                CHANNELS 3 Zrotation Xrotation Yrotation
                JOINT RightArm
                {
                    OFFSET -10.880760 0.000000 0.000000
                    CHANNELS 3 Zrotation Xrotation Yrotation
                    JOINT RightForeArm
                    {
                        OFFSET -27.185530 0.000000 0.000000
                        CHANNELS 3 Zrotation Xrotation Yrotation
                        JOINT RightHand
                        {
                            OFFSET -27.825975 0.000000 0.000000
                            CHANNELS 3 Zrotation Xrotation Yrotation
                            End Site
                            {
                                OFFSET -13.236923 0.000000 0.000000
                            }
                        }
                    }
                }
            }
        }
    }
    JOINT LeftUpLeg
    {
        OFFSET 8.824615 0.000000 0.000000
        CHANNELS 3 Zrotation Xrotation Yrotation
        JOINT LeftLeg
        {
            OFFSET -0.000000 -35.111282 0.000000
            CHANNELS 3 Zrotation Xrotation Yrotation
            JOINT LeftFoot
            {
                OFFSET -0.000000 -42.324711 0.000000
                CHANNELS 3 Zrotation Xrotation Yrotation
                JOINT LeftToeBase
                {
                    OFFSET -0.000000 -5.735999 13.236923
                    CHANNELS 3 Zrotation Xrotation Yrotation
                    End Site
                    {
                        OFFSET -0.000000 0.000000 3.529846
                    }
                }
            }
        }
    }
    JOINT RightUpLeg
    {
        OFFSET -8.824615 0.000000 0.000000
        CHANNELS 3 Zrotation Xrotation Yrotation
        JOINT RightLeg
        {
            OFFSET -0.000000 -35.111282 0.000000
            CHANNELS 3 Zrotation Xrotation Yrotation
            JOINT RightFoot
            {
                OFFSET -0.000000 -42.324711 0.000000
                CHANNELS 3 Zrotation Xrotation Yrotation
                JOINT RightToeBase
                {
                    OFFSET -0.000000 -5.735999 13.236923
                    CHANNELS 3 Zrotation Xrotation Yrotation
                    End Site
                    {
                        OFFSET -0.000000 0.000000 3.529846
                    }
                }
            }
        }
    }
}
MOTION
Frames:    13
Frame Time:    0.008333
-24.783224    85.343964    96.804604    -1.970208    -6.444569    169.152573    -3.469448    -15.784702    1.533378    1.712001    10.069363    1.863653    2.494227    6.389081    -2.778873    11.404000    -18.781677    0.325059    -2.140159    18.988131    -0.894686    -48.513092    43.005211    -31.537535    -0.143890    -4.121506    -13.597039    28.979736    -4.246319    -0.417895    12.923491    21.375332    -8.345851    32.579685    44.250374    44.026894    -2.570655    -8.424641    20.322987    -15.353291    -7.561109    -3.049882    1.683435    -12.090900    -7.558300    -0.143596    12.844671    0.426014    -1.549532    -6.856760    -9.152053    -0.481890    -0.151684    0.534304    -3.828636    -7.000810    -3.594790    1.862044    9.131035    0.377221    -0.681131    -5.854181    -14.704394    -1.290222    -1.637606    1.398648    
-24.935610    85.351074    96.804535    -2.027853    -6.520466    168.871109    -3.467964    -15.764751    1.507935    1.707839    9.974752    1.839164    2.526861    6.327503    -2.731925    11.217319    -18.804146    0.314962    -2.080819    18.879282    -0.958860    -48.201977    43.123333    -31.921192    -0.164020    -4.326325    -13.737810    28.568468    -4.439504    -0.368208    12.914558    21.410677    -8.345069    32.684032    44.167770    43.978519    -2.495933    -8.501805    20.144409    -15.232481    -7.641793    -3.179171    1.643780    -12.078798    -7.383070    -0.219236    12.698914    0.517861    -1.520592    -6.806911    -9.135750    -0.462842    -0.169221    0.513200    -3.989098    -7.416583    -3.390152    1.973051    9.568275    0.122281    -0.701145    -5.789165    -14.625433    -1.278455    -1.894663    1.386396    
-25.085854    85.358261    96.804657    -2.085304    -6.594940    168.593094    -3.467081    -15.745613    1.482623    1.705113    9.883028    1.814771    2.558710    6.265974    -2.685417    11.033988    -18.828020    0.305578    -2.023577    18.772346    -1.022772    -47.888306    43.232731    -32.301186    -0.183621    -4.525504    -13.875786    28.169584    -4.628109    -0.321216    12.905792    21.444700    -8.343970    32.783199    44.085018    43.931778    -2.425668    -8.579072    19.968906    -15.123401    -7.722027    -3.303967    1.604520    -12.066233    -7.208492    -0.293335    12.552670    0.608802    -1.492278    -6.756041    -9.121392    -0.443612    -0.186842    0.491894    -4.144899    -7.828114    -3.192959    2.084230    10.000054    -0.127932    -0.723339    -5.724545    -14.552860    -1.266169    -2.149914    1.373572    
-25.235399    85.365768    96.805191    -2.142884    -6.668901    168.315308    -3.465746    -15.727004    1.457169    1.703260    9.793820    1.790044    2.592484    6.203201    -2.637849    10.846460    -18.855501    0.296026    -1.967984    18.666265    -1.087539    -47.569649    43.332630    -32.682224    -0.203142    -4.717164    -14.011477    27.783730    -4.809575    -0.273922    12.897248    21.476589    -8.342112    32.876221    44.001793    43.887104    -2.360338    -8.657082    19.795429    -15.031617    -7.802405    -3.422542    1.565929    -12.052277    -7.030985    -0.366574    12.402575    0.701189    -1.464616    -6.702195    -9.111074    -0.424118    -0.204583    0.470293    -4.297510    -8.239709    -3.003492    2.198927    10.430738    -0.379606    -0.750428    -5.659231    -14.487704    -1.253124    -2.410102    1.359926    
-25.380711    85.373535    96.806351    -2.199059    -6.740646    168.043686    -3.463336    -15.709065    1.432114    1.702205    9.709553    1.765434    2.621008    6.140260    -2.591156    10.669752    -18.886549    0.289529    -1.915451    18.564060    -1.151598    -47.253860    43.419312    -33.057152    -0.221700    -4.893625    -14.140716    27.422026    -4.975937    -0.225825    12.888907    21.505005    -8.339563    32.958500    43.920971    43.847488    -2.302670    -8.734206    19.628830    -14.962939    -7.881150    -3.530097    1.529379    -12.036440    -6.852896    -0.437196    12.250449    0.793914    -1.438317    -6.645289    -9.106605    -0.404340    -0.222412    0.448376    -4.443393    -8.642283    -2.830483    2.315993    10.851255    -0.628256    -0.783726    -5.594913    -14.432920    -1.239523    -2.672562    1.345672    
-25.522583    85.381729    96.808281    -2.253895    -6.810611    167.775925    -3.458836    -15.691820    1.407328    1.701285    9.630652    1.740770    2.646677    6.076369    -2.544254    10.497977    -18.923243    0.285402    -1.865668    18.464762    -1.216016    -46.940540    43.491970    -33.428005    -0.239135    -5.052826    -14.263931    27.084091    -5.124774    -0.175562    12.881007    21.529406    -8.335923    33.028385    43.842720    43.814114    -2.253014    -8.810951    19.469118    -14.918400    -7.958614    -3.626631    1.495049    -12.017852    -6.671300    -0.505259    12.094172    0.888119    -1.413339    -6.584059    -9.109134    -0.383917    -0.240906    0.425744    -4.583361    -9.038225    -2.673568    2.438215    11.264252    -0.879799    -0.825006    -5.531221    -14.390153    -1.225229    -2.941170    1.330669    
-25.659094    85.390274    96.811043    -2.306568    -6.877724    167.514709    -3.451729    -15.675162    1.383151    1.700048    9.558353    1.716316    2.667513    6.012040    -2.497769    10.335963    -18.965349    0.284627    -1.819025    18.370319    -1.279609    -46.634098    43.549240    -33.791290    -0.254448    -5.190497    -14.379551    26.773584    -5.251661    -0.123143    12.873369    21.548857    -8.330967    33.083561    43.769157    43.788456    -2.212201    -8.886149    19.319792    -14.897861    -8.033548    -3.711332    1.463736    -11.996100    -6.487731    -0.570091    11.935143    0.983115    -1.389675    -6.518789    -9.118786    -0.363130    -0.260061    0.402705    -4.715562    -9.422629    -2.537887    2.565003    11.665394    -1.132827    -0.874511    -5.469673    -14.361435    -1.210231    -3.214518    1.314901    
-25.791737    85.399307    96.814728    -2.357622    -6.942513    167.256104    -3.441294    -15.658961    1.359408    1.697968    9.492471    1.691779    2.684531    5.946276    -2.450712    10.179818    -19.014084    0.286987    -1.774848    18.279476    -1.343808    -46.332802    43.591030    -34.150322    -0.266847    -5.305860    -14.489350    26.486340    -5.355580    -0.067957    12.865894    21.563591    -8.324043    33.122791    43.700706    43.771717    -2.180693    -8.961187    19.180513    -14.898868    -8.106974    -3.786607    1.435196    -11.970204    -6.298923    -0.632325    11.770989    1.080384    -1.366757    -6.448328    -9.135623    -0.341260    -0.280191    0.378466    -4.841438    -9.800060    -2.424637    2.698786    12.060471    -1.392654    -0.933138    -5.410405    -14.348320    -1.193901    -3.497191    1.297693    
-25.918446    85.408638    96.819321    -2.406387    -7.003645    167.002899    -3.427443    -15.643277    1.336487    1.694725    9.434409    1.667586    2.697833    5.879935    -2.403495    10.030798    -19.069126    0.292449    -1.733624    18.193874    -1.407807    -46.041744    43.616970    -34.499729    -0.274858    -5.395742    -14.592739    26.225548    -5.433305    -0.010835    12.858712    21.572922    -8.314610    33.144638    43.639370    43.764484    -2.158638    -9.035115    19.054701    -14.917978    -8.177915    -3.853137    1.409772    -11.940086    -6.106926    -0.691003    11.604381    1.178774    -1.344600    -6.373785    -9.159057    -0.318649    -0.301770    0.353404    -4.959057    -10.164975    -2.338133    2.838090    12.444692    -1.657695    -0.999803    -5.355090    -14.352314    -1.176252    -3.785472    1.279050    
-26.039522    85.418228    96.824738    -2.453349    -7.060956    166.753296    -3.410058    -15.628158    1.314380    1.689769    9.384398    1.643770    2.707695    5.812092    -2.355777    9.887884    -19.129427    0.300825    -1.694493    18.112818    -1.471996    -45.761909    43.628197    -34.839409    -0.276891    -5.459392    -14.691582    25.988600    -5.483956    0.047853    12.851370    21.577124    -8.302245    33.148766    43.586239    43.767540    -2.145979    -9.108960    18.943398    -14.951081    -8.247172    -3.913501    1.386859    -11.905203    -5.910737    -0.745993    11.435070    1.278703    -1.322950    -6.295209    -9.188488    -0.295075    -0.325194    0.327272    -5.069159    -10.518407    -2.280297    2.983958    12.820276    -1.930258    -1.074275    -5.304447    -14.375413    -1.156705    -4.080117    1.258340    
-26.154667    85.427895    96.830933    -2.498910    -7.113903    166.506500    -3.389316    -15.613760    1.293225    1.682827    9.342851    1.620553    2.715205    5.743517    -2.307297    9.748848    -19.195635    0.311790    -1.657272    18.036934    -1.536296    -45.494072    43.625332    -35.168678    -0.271728    -5.495850    -14.787594    25.774811    -5.506506    0.107459    12.843687    21.576675    -8.286152    33.135529    43.541958    43.780804    -2.142326    -9.183842    18.847675    -14.993649    -8.315902    -3.969507    1.365944    -11.865296    -5.710512    -0.797218    11.264026    1.380076    -1.301637    -6.213346    -9.222764    -0.270599    -0.350584    0.300139    -5.171864    -10.859606    -2.253357    3.136234    13.187677    -2.211472    -1.155681    -5.259318    -14.419150    -1.134909    -4.379646    1.235177    
-26.263931    85.437492    96.837791    -2.543807    -7.162010    166.260925    -3.365498    -15.600225    1.273189    1.673380    9.310105    1.598089    2.720769    5.673940    -2.257783    9.612576    -19.266747    0.325058    -1.621377    17.964098    -1.601697    -45.240810    43.610397    -35.484173    -0.257921    -5.504438    -14.883346    25.583393    -5.500171    0.167391    12.835247    21.571716    -8.265524    33.106476    43.506802    43.803398    -2.146927    -9.261433    18.768532    -15.040989    -8.385748    -4.023273    1.346311    -11.819958    -5.506052    -0.844844    11.091734    1.483386    -1.280639    -6.128866    -9.260876    -0.245213    -0.377826    0.271995    -5.267757    -11.188759    -2.259496    3.295053    13.548183    -2.503184    -1.243553    -5.220016    -14.484635    -1.110392    -4.682760    1.209040    
-26.366982    85.446777    96.845177    -2.588806    -7.204755    166.015900    -3.339214    -15.587758    1.254401    1.661206    9.286299    1.576681    2.725326    5.603479    -2.207062    9.477068    -19.341682    0.340047    -1.586192    17.897381    -1.666601    -44.999924    43.583725    -35.789677    -0.234448    -5.484765    -14.980691    25.414297    -5.464561    0.226874    12.826133    21.562754    -8.239811    33.063183    43.481155    43.834396    -2.159429    -9.344163    18.706701    -15.088323    -8.459138    -4.076731    1.327005    -11.769166    -5.297835    -0.888718    10.919332    1.588587    -1.260330    -6.042837    -9.301744    -0.218985    -0.406983    0.242916    -5.357285    -11.504880    -2.300324    3.459853    13.901941    -2.805520    -1.337437    -5.186952    -14.573345    -1.082880    -4.986825    1.179622    
